<?xml version="1.0" encoding="UTF-8"?>
<svg version="1.1" xmlns="http://www.w3.org/2000/svg" width="100" height="100">
<path d="M0 0 C1.85750381 -0.01429802 1.85750381 -0.01429802 3.75253296 -0.02888489 C5.09625273 -0.02862341 6.43997252 -0.02768612 7.78369141 -0.02612305 C9.17225268 -0.030014 10.56081277 -0.03434949 11.94937134 -0.03910828 C14.85609804 -0.04655687 17.76270326 -0.04628948 20.66943359 -0.04101562 C24.38043502 -0.0352275 28.09093628 -0.05214215 31.80185509 -0.0753603 C34.66904572 -0.09014835 37.53611736 -0.09096241 40.40333939 -0.08785057 C41.77077855 -0.0883614 43.13822479 -0.09355405 44.50562668 -0.10366249 C60.2828919 -0.20597559 60.2828919 -0.20597559 67.15014648 6.00292969 C71.52348736 11.57612586 70.60002254 18.89270679 70.52197266 25.62231445 C70.52347695 27.12251592 70.52691158 28.62271658 70.53218079 30.12290955 C70.53649998 33.25763312 70.51976759 36.39132354 70.48754883 39.52587891 C70.4477323 43.53329539 70.45708882 47.53877968 70.48178387 51.54625797 C70.496 54.64086101 70.48585513 57.73501648 70.46827126 60.82958794 C70.46244387 62.30668505 70.4636906 63.7838284 70.47229576 65.26091194 C70.52259268 78.20076957 70.52259268 78.20076957 67.59155273 82.10058594 C62.85594151 85.73692447 58.38012695 86.52391995 52.4987793 86.54931641 C50.67141991 86.56361443 50.67141991 86.56361443 48.80714417 86.57820129 C47.50389694 86.57728989 46.20064972 86.57637848 44.85791016 86.57543945 C43.49319835 86.5793318 42.12848775 86.58366758 40.76377869 86.58842468 C37.91010604 86.59586509 35.05655717 86.59561144 32.20288086 86.59033203 C28.56028603 86.58453868 24.91819991 86.60147516 21.27568913 86.6246767 C18.45911232 86.63946447 15.64265665 86.64027896 12.8260479 86.63716698 C10.83477919 86.63792448 8.84352916 86.6517544 6.85231018 86.66584778 C-1.46791271 86.62341674 -7.26387129 86.30529808 -13.62963867 80.54638672 C-18.00297954 74.97319055 -17.07951473 67.65660962 -17.00146484 60.92700195 C-17.00296914 59.42680048 -17.00640377 57.92659983 -17.01167297 56.42640686 C-17.01599217 53.29168329 -16.99925978 50.15799287 -16.96704102 47.0234375 C-16.92722449 43.01602102 -16.936581 39.01053673 -16.96127605 35.00305843 C-16.97549219 31.90845539 -16.96534732 28.81429992 -16.94776344 25.71972847 C-16.94193606 24.24263135 -16.94318279 22.76548801 -16.95178795 21.28840446 C-17.00210097 8.34440393 -17.00210097 8.34440393 -14.00854492 4.44873047 C-9.43551929 0.85797188 -5.76646454 0.02444255 0 0 Z " fill="#D7ECFD" transform="translate(24.23974609375,7.725341796875)"/>
<path d="M0 0 C1.85750381 -0.01429802 1.85750381 -0.01429802 3.75253296 -0.02888489 C5.09625273 -0.02862341 6.43997252 -0.02768612 7.78369141 -0.02612305 C9.17225268 -0.030014 10.56081277 -0.03434949 11.94937134 -0.03910828 C14.85609804 -0.04655687 17.76270326 -0.04628948 20.66943359 -0.04101562 C24.38043502 -0.0352275 28.09093628 -0.05214215 31.80185509 -0.0753603 C34.66904572 -0.09014835 37.53611736 -0.09096241 40.40333939 -0.08785057 C41.77077855 -0.0883614 43.13822479 -0.09355405 44.50562668 -0.10366249 C60.2828919 -0.20597559 60.2828919 -0.20597559 67.15014648 6.00292969 C71.52348736 11.57612586 70.60002254 18.89270679 70.52197266 25.62231445 C70.52347695 27.12251592 70.52691158 28.62271658 70.53218079 30.12290955 C70.53649998 33.25763312 70.51976759 36.39132354 70.48754883 39.52587891 C70.4477323 43.53329539 70.45708882 47.53877968 70.48178387 51.54625797 C70.496 54.64086101 70.48585513 57.73501648 70.46827126 60.82958794 C70.46244387 62.30668505 70.4636906 63.7838284 70.47229576 65.26091194 C70.52259268 78.20076957 70.52259268 78.20076957 67.59155273 82.10058594 C62.85594151 85.73692447 58.38012695 86.52391995 52.4987793 86.54931641 C50.67141991 86.56361443 50.67141991 86.56361443 48.80714417 86.57820129 C47.50389694 86.57728989 46.20064972 86.57637848 44.85791016 86.57543945 C43.49319835 86.5793318 42.12848775 86.58366758 40.76377869 86.58842468 C37.91010604 86.59586509 35.05655717 86.59561144 32.20288086 86.59033203 C28.56028603 86.58453868 24.91819991 86.60147516 21.27568913 86.6246767 C18.45911232 86.63946447 15.64265665 86.64027896 12.8260479 86.63716698 C10.83477919 86.63792448 8.84352916 86.6517544 6.85231018 86.66584778 C-1.46791271 86.62341674 -7.26387129 86.30529808 -13.62963867 80.54638672 C-18.00297954 74.97319055 -17.07951473 67.65660962 -17.00146484 60.92700195 C-17.00296914 59.42680048 -17.00640377 57.92659983 -17.01167297 56.42640686 C-17.01599217 53.29168329 -16.99925978 50.15799287 -16.96704102 47.0234375 C-16.92722449 43.01602102 -16.936581 39.01053673 -16.96127605 35.00305843 C-16.97549219 31.90845539 -16.96534732 28.81429992 -16.94776344 25.71972847 C-16.94193606 24.24263135 -16.94318279 22.76548801 -16.95178795 21.28840446 C-17.00210097 8.34440393 -17.00210097 8.34440393 -14.00854492 4.44873047 C-9.43551929 0.85797188 -5.76646454 0.02444255 0 0 Z M-8.23974609 11.2746582 C-8.54704261 13.97159318 -8.54704261 13.97159318 -8.49853516 17.16137695 C-8.50483948 18.39605713 -8.5111438 19.6307373 -8.51763916 20.90283203 C-8.51405948 22.2559422 -8.50995754 23.60905107 -8.50537109 24.9621582 C-8.50671784 26.3445645 -8.50865845 27.72697033 -8.51116943 29.109375 C-8.51412027 32.00793971 -8.50982445 34.90638124 -8.50048828 37.80493164 C-8.48909364 41.52426458 -8.49565335 45.24330889 -8.50763321 48.96263123 C-8.51485297 51.81760847 -8.51256337 54.67251705 -8.50737762 57.52749634 C-8.50604144 58.89905837 -8.50768776 60.27062659 -8.51233673 61.6421814 C-8.51740357 63.55743291 -8.50831441 65.47270621 -8.49853516 67.38793945 C-8.49694397 68.47888916 -8.49535278 69.56983887 -8.49371338 70.69384766 C-8.4992006 73.43817613 -8.4992006 73.43817613 -6.23974609 75.2746582 C-3.46146781 75.58213643 -3.46146781 75.58213643 -0.16943359 75.53344727 C1.74264893 75.54290375 1.74264893 75.54290375 3.69335938 75.55255127 C5.09065895 75.54897159 6.48795727 75.54486966 7.88525391 75.5402832 C9.31250067 75.54162991 10.73974699 75.5435705 12.16699219 75.54608154 C15.15971235 75.54903254 18.15231322 75.54473602 21.14501953 75.53540039 C24.98541764 75.52400576 28.82553622 75.53056537 32.66592407 75.54254532 C35.6135469 75.54976463 38.56110322 75.54747569 41.50872803 75.54228973 C42.92494744 75.54095343 44.34117284 75.5426003 45.75738525 75.54724884 C47.73490283 75.55231495 49.71244152 75.54322728 51.68994141 75.53344727 C52.8164209 75.53185608 53.94290039 75.53026489 55.10351562 75.52862549 C57.91499227 75.54432636 57.91499227 75.54432636 59.76025391 73.2746582 C60.06755043 70.57772322 60.06755043 70.57772322 60.01904297 67.38793945 C60.02849945 65.53591919 60.02849945 65.53591919 60.03814697 63.64648438 C60.03456729 62.29337421 60.03046535 60.94026533 60.02587891 59.5871582 C60.02722565 58.20475191 60.02916626 56.82234608 60.03167725 55.43994141 C60.03462808 52.5413767 60.03033227 49.64293517 60.02099609 46.74438477 C60.00960145 43.02505183 60.01616116 39.30600752 60.02814102 35.58668518 C60.03536079 32.73170794 60.03307119 29.87679936 60.02788544 27.02182007 C60.02654926 25.65025804 60.02819557 24.27868981 60.03284454 22.90713501 C60.03791138 20.9918835 60.02882222 19.0766102 60.01904297 17.16137695 C60.01745178 16.07042725 60.0158606 14.97947754 60.01422119 13.85546875 C60.01970841 11.11114027 60.01970841 11.11114027 57.76025391 9.2746582 C54.98197563 8.96717997 54.98197563 8.96717997 51.68994141 9.01586914 C50.41521973 9.00956482 49.14049805 9.0032605 47.82714844 8.99676514 C46.42984886 9.00034481 45.03255054 9.00444675 43.63525391 9.0090332 C42.20800714 9.00768649 40.78076082 9.00574591 39.35351562 9.00323486 C36.36079546 9.00028386 33.36819459 9.00458038 30.37548828 9.01391602 C26.53509017 9.02531065 22.69497159 9.01875103 18.85458374 9.00677109 C15.90696091 8.99955178 12.95940459 9.00184072 10.01177979 9.00702667 C8.59556038 9.00836298 7.17933497 9.00671611 5.76312256 9.00206757 C3.78560498 8.99700146 1.80806629 9.00608913 -0.16943359 9.01586914 C-1.29591309 9.01746033 -2.42239258 9.01905151 -3.58300781 9.02069092 C-6.39448445 9.00499005 -6.39448445 9.00499005 -8.23974609 11.2746582 Z " fill="#EEEEEF" transform="translate(24.23974609375,7.725341796875)"/>
<path d="M0 0 C1.96223511 -0.01891296 1.96223511 -0.01891296 3.96411133 -0.03820801 C5.38884012 -0.0310482 6.81356399 -0.02284422 8.23828125 -0.01367188 C9.70272072 -0.01636736 11.16715844 -0.02025026 12.6315918 -0.02526855 C15.69825305 -0.03116106 18.76444774 -0.02260934 21.83105469 -0.00390625 C25.75891761 0.01888402 29.68568731 0.00575949 33.61351013 -0.01819611 C36.63676162 -0.03266128 39.65975458 -0.02804499 42.68301392 -0.01768494 C44.13107432 -0.0150196 45.57915831 -0.0182807 47.02719116 -0.02760315 C49.05197695 -0.03777847 51.07684519 -0.0195152 53.1015625 0 C54.82886597 0.00477356 54.82886597 0.00477356 56.59106445 0.00964355 C59.55078125 0.51757812 59.55078125 0.51757812 61.92150879 2.1583252 C64.02936173 5.21058216 64.05781933 7.08698298 64.06835938 10.78320312 C64.08096802 12.05131836 64.09357666 13.31943359 64.10656738 14.62597656 C64.09940755 16.00651608 64.09120356 17.38705051 64.08203125 18.76757812 C64.08472687 20.18717718 64.08860988 21.60677444 64.09362793 23.02636719 C64.09951983 25.99887707 64.09097079 28.97090554 64.07226562 31.94335938 C64.04947525 35.75016599 64.06260013 39.55584462 64.08655548 43.36260986 C64.10102239 46.29321769 64.0964036 49.22355887 64.08604431 52.1541748 C64.08337944 53.55757786 64.08663842 54.96100527 64.09596252 56.36437988 C64.10614066 58.32689947 64.08787165 60.28950414 64.06835938 62.25195312 C64.065177 63.36795898 64.06199463 64.48396484 64.05871582 65.63378906 C63.55078125 68.51757812 63.55078125 68.51757812 61.92150879 70.87683105 C58.81679688 73.02555835 56.86424721 73.02475773 53.1015625 73.03515625 C51.13932739 73.05406921 51.13932739 73.05406921 49.13745117 73.07336426 C47.71272238 73.06620445 46.28799851 73.05800047 44.86328125 73.04882812 C43.39884178 73.05152361 41.93440406 73.05540651 40.4699707 73.0604248 C37.40330945 73.06631731 34.33711476 73.05776559 31.27050781 73.0390625 C27.34264489 73.01627223 23.41587519 73.02939676 19.48805237 73.05335236 C16.46480088 73.06781753 13.44180792 73.06320124 10.41854858 73.05284119 C8.97048818 73.05017585 7.52240419 73.05343695 6.07437134 73.0627594 C4.04958555 73.07293472 2.02471731 73.05467145 0 73.03515625 C-1.15153564 73.03197388 -2.30307129 73.0287915 -3.48950195 73.0255127 C-6.44921875 72.51757812 -6.44921875 72.51757812 -8.81994629 70.87683105 C-10.92779923 67.82457409 -10.95625683 65.94817327 -10.96679688 62.25195312 C-10.97940552 60.98383789 -10.99201416 59.71572266 -11.00500488 58.40917969 C-10.99784505 57.02864017 -10.98964106 55.64810574 -10.98046875 54.26757812 C-10.98316437 52.84797907 -10.98704738 51.42838181 -10.99206543 50.00878906 C-10.99795733 47.03627918 -10.98940829 44.06425071 -10.97070312 41.09179688 C-10.94791275 37.28499026 -10.96103763 33.47931163 -10.98499298 29.67254639 C-10.99945989 26.74193856 -10.9948411 23.81159738 -10.98448181 20.88098145 C-10.98181694 19.47757839 -10.98507592 18.07415098 -10.99440002 16.67077637 C-11.00457816 14.70825678 -10.98630915 12.74565211 -10.96679688 10.78320312 C-10.9636145 9.66719727 -10.96043213 8.55119141 -10.95715332 7.40136719 C-10.44921875 4.51757812 -10.44921875 4.51757812 -8.81994629 2.1583252 C-5.71523438 0.0095979 -3.76268471 0.01039852 0 0 Z M-7.44921875 5.51757812 C-7.75651527 8.21451311 -7.75651527 8.21451311 -7.70800781 11.40429688 C-7.71431213 12.63897705 -7.72061646 13.87365723 -7.72711182 15.14575195 C-7.72353213 16.49886212 -7.7194302 17.85197099 -7.71484375 19.20507812 C-7.7161905 20.58748442 -7.71813111 21.96989025 -7.72064209 23.35229492 C-7.72359293 26.25085963 -7.71929711 29.14930116 -7.70996094 32.04785156 C-7.6985663 35.7671845 -7.705126 39.48622881 -7.71710587 43.20555115 C-7.72432563 46.06052839 -7.72203603 48.91543697 -7.71685028 51.77041626 C-7.7155141 53.14197829 -7.71716041 54.51354652 -7.72180939 55.88510132 C-7.72687623 57.80035283 -7.71778706 59.71562613 -7.70800781 61.63085938 C-7.70641663 62.72180908 -7.70482544 63.81275879 -7.70318604 64.93676758 C-7.70867325 67.68109606 -7.70867325 67.68109606 -5.44921875 69.51757812 C-2.67094047 69.82505635 -2.67094047 69.82505635 0.62109375 69.77636719 C2.53317627 69.78582367 2.53317627 69.78582367 4.48388672 69.79547119 C5.88118629 69.79189152 7.27848462 69.78778958 8.67578125 69.78320312 C10.10302802 69.78454984 11.53027434 69.78649042 12.95751953 69.78900146 C15.9502397 69.79195247 18.94284056 69.78765595 21.93554688 69.77832031 C25.77594498 69.76692568 29.61606357 69.7734853 33.45645142 69.78546524 C36.40407425 69.79268455 39.35163056 69.79039561 42.29925537 69.78520966 C43.71547478 69.78387335 45.13170019 69.78552022 46.5479126 69.79016876 C48.52543018 69.79523487 50.50296887 69.7861472 52.48046875 69.77636719 C53.60694824 69.774776 54.73342773 69.77318481 55.89404297 69.77154541 C58.70551961 69.78724628 58.70551961 69.78724628 60.55078125 67.51757812 C60.85807777 64.82064314 60.85807777 64.82064314 60.80957031 61.63085938 C60.81902679 59.77883911 60.81902679 59.77883911 60.82867432 57.8894043 C60.82509463 56.53629413 60.8209927 55.18318526 60.81640625 53.83007812 C60.817753 52.44767183 60.81969361 51.065266 60.82220459 49.68286133 C60.82515543 46.78429662 60.82085961 43.88585509 60.81152344 40.98730469 C60.8001288 37.26797175 60.8066885 33.54892744 60.81866837 29.8296051 C60.82588813 26.97462786 60.82359853 24.11971928 60.81841278 21.26473999 C60.8170766 19.89317796 60.81872291 18.52160973 60.82337189 17.15005493 C60.82843873 15.23480342 60.81934956 13.31953012 60.80957031 11.40429688 C60.80797913 10.31334717 60.80638794 9.22239746 60.80474854 8.09838867 C60.81023575 5.35406019 60.81023575 5.35406019 58.55078125 3.51757812 C55.77250297 3.2100999 55.77250297 3.2100999 52.48046875 3.25878906 C51.20574707 3.25248474 49.93102539 3.24618042 48.61767578 3.23968506 C47.22037621 3.24326473 45.82307788 3.24736667 44.42578125 3.25195312 C42.99853448 3.25060641 41.57128816 3.24866583 40.14404297 3.24615479 C37.1513228 3.24320378 34.15872194 3.2475003 31.16601562 3.25683594 C27.32561752 3.26823057 23.48549893 3.26167095 19.64511108 3.24969101 C16.69748825 3.2424717 13.74993194 3.24476064 10.80230713 3.24994659 C9.38608772 3.2512829 7.96986231 3.24963603 6.5536499 3.24498749 C4.57613232 3.23992138 2.59859363 3.24900905 0.62109375 3.25878906 C-0.50538574 3.26038025 -1.63186523 3.26197144 -2.79248047 3.26361084 C-5.60395711 3.24790997 -5.60395711 3.24790997 -7.44921875 5.51757812 Z " fill="#454073" transform="translate(23.44921875,13.482421875)"/>
<path d="M0 0 C0.54478885 8.67122255 0.42240406 17.79241715 -5.49609375 24.76171875 C-8.69548352 27.54622506 -11.42086564 29.10709858 -15.70703125 28.81640625 C-16.73183594 28.73261719 -17.75664063 28.64882813 -18.8125 28.5625 C-23.34906212 28.41905171 -23.34906212 28.41905171 -27.015625 30.77734375 C-28.58802514 32.95812612 -28.58802514 32.95812612 -29.81640625 35.25 C-30.20699219 35.8275 -30.59757812 36.405 -31 37 C-31.99 37 -32.98 37 -34 37 C-32.30821918 32.31506849 -32.30821918 32.31506849 -30.41796875 30.3828125 C-27.93661238 26.2130401 -28.96239247 21.4431027 -29.29296875 16.73046875 C-29.45235093 12.56574309 -29.38748624 9.89525958 -26.69921875 6.578125 C-18.63654907 -1.12283301 -10.59331473 -0.46281472 0 0 Z " fill="#74A04F" transform="translate(69,29)"/>
<path d="M0 0 C22.44 0 44.88 0 68 0 C68 2.31 68 4.62 68 7 C65.26538241 9.73461759 63.75715327 9.25338265 59.9296875 9.25878906 C58.01760498 9.26824554 58.01760498 9.26824554 56.06689453 9.27789307 C54.66959496 9.27431339 53.27229663 9.27021146 51.875 9.265625 C50.44775323 9.26697171 49.02050691 9.26891229 47.59326172 9.27142334 C44.60054155 9.27437434 41.60794069 9.27007782 38.61523438 9.26074219 C34.77483627 9.24934755 30.93471768 9.25590717 27.09432983 9.26788712 C24.146707 9.27510643 21.19915069 9.27281748 18.25152588 9.26763153 C16.83530647 9.26629523 15.41908106 9.26794209 14.00286865 9.27259064 C12.02535107 9.27765675 10.04781238 9.26856908 8.0703125 9.25878906 C6.38059326 9.25640228 6.38059326 9.25640228 4.65673828 9.25396729 C2 9 2 9 0 7 C0 4.69 0 2.38 0 0 Z " fill="#6FBEFE" transform="translate(16,74)"/>
<path d="M0 0 C1.47375488 1.0945282 1.47375488 1.0945282 3 3 C3.39440918 5.90193176 3.39440918 5.90193176 3.41992188 9.48754883 C3.42839142 10.14159195 3.43686096 10.79563507 3.44558716 11.46949768 C3.46898954 13.63220666 3.46997838 15.7942052 3.46875 17.95703125 C3.47585153 19.46294947 3.48355052 20.96886497 3.49182129 22.47477722 C3.50527482 25.63308221 3.5068319 28.79113725 3.50097656 31.94946289 C3.49509047 35.98823876 3.52562072 40.02580832 3.56609344 44.06435108 C3.59200634 47.17602449 3.59484448 50.28740922 3.59120178 53.39917564 C3.59289083 54.88747874 3.60251283 56.37579548 3.62034607 57.86399269 C3.75983107 70.94759165 3.75983107 70.94759165 0.83789062 74.8347168 C-3.9072016 78.45517645 -8.38043394 79.24926307 -14.26147461 79.2746582 C-16.088834 79.28895622 -16.088834 79.28895622 -17.95310974 79.30354309 C-19.25635696 79.30263168 -20.55960419 79.30172028 -21.90234375 79.30078125 C-23.26705555 79.3046736 -24.63176616 79.30900937 -25.99647522 79.31376648 C-28.85014786 79.32120688 -31.70369674 79.32095323 -34.55737305 79.31567383 C-38.19996787 79.30988048 -41.842054 79.32681696 -45.48456478 79.3500185 C-48.30114158 79.36480626 -51.11759726 79.36562076 -53.93420601 79.36250877 C-55.92547472 79.36326627 -57.91672474 79.3770962 -59.90794373 79.39118958 C-66.35633407 79.35830441 -71.32720944 79.19520206 -77 76 C-74.15731286 74.57865643 -71.78792298 74.90395009 -68.61010742 74.93408203 C-67.95460403 74.93875488 -67.29910065 74.94342773 -66.62373352 74.94824219 C-65.19848678 74.95875301 -63.7732547 74.9714184 -62.34804344 74.98596573 C-60.09077578 75.00795564 -57.83359173 75.02205641 -55.57624817 75.03366089 C-49.15740492 75.06728285 -42.73869963 75.10880527 -36.32006836 75.17138672 C-32.39501102 75.20908966 -28.47009716 75.23207559 -24.54488564 75.24569321 C-23.05016397 75.25373745 -21.55546132 75.26733229 -20.06084251 75.28662491 C-17.96640848 75.31318017 -15.872658 75.32100385 -13.77807617 75.32470703 C-12.58719894 75.33438507 -11.39632172 75.34406311 -10.1693573 75.35403442 C-6.6185612 74.95739121 -4.79810597 74.19858526 -2 72 C0.46491255 68.64148929 0.2421219 65.37291292 0.22705078 61.30371094 C0.22734283 60.63988403 0.22763489 59.97605713 0.22793579 59.29211426 C0.22654658 57.10606649 0.21100503 54.92036296 0.1953125 52.734375 C0.19158091 51.21551703 0.18873463 49.69665665 0.18673706 48.17779541 C0.1791121 44.18617063 0.15947344 40.19469211 0.1373291 36.203125 C0.11684614 32.12762429 0.10773011 28.05209988 0.09765625 23.9765625 C0.07622641 15.98430799 0.04210426 7.99217221 0 0 Z " fill="#0D0D0D" transform="translate(91,15)"/>
<path d="M0 0 C0 3.96 0 7.92 0 12 C-0.33 12 -0.66 12 -1 12 C-1.495 7.05 -1.495 7.05 -2 2 C-10.25 10.25 -18.5 18.5 -27 27 C-29.91195693 24.08804307 -29.36990305 21.80581671 -29.4375 17.75 C-29.41397771 9.44173036 -29.41397771 9.44173036 -27 6.3125 C-26.01 5.549375 -25.02 4.78625 -24 4 C-23.48824219 3.59394531 -22.97648437 3.18789063 -22.44921875 2.76953125 C-15.83383327 -1.52826907 -7.54530855 -0.3296494 0 0 Z " fill="#95C264" transform="translate(69,29)"/>
<path d="M0 0 C0.33 0.99 0.66 1.98 1 3 C-0.25 5.1875 -0.25 5.1875 -2 7 C-2.99 7 -3.98 7 -5 7 C-3.75023244 3.34683329 -3.32901247 2.21934164 0 0 Z " fill="#7DA75F" transform="translate(40,59)"/>
</svg>
